HIERARCHY
ROOT Hips
{
	OFFSET 0.000000 0.000000 0.000000
	CHANNELS 6 Xposition Yposition Zposition Zrotation Yrotation Xrotation 
	JOINT LeftUpLeg_virtual
	{
		OFFSET 0.000000 0.000000 0.000000
		CHANNELS 3 Zrotation Yrotation Xrotation
		JOINT LeftUpLeg
		{
			OFFSET 10.205400 -3.823500 0.155100
			CHANNELS 3 Zrotation Yrotation Xrotation
			JOINT LeftLeg
			{
				OFFSET 0.708757 -12.982077 0.567790
				CHANNELS 3 Zrotation Yrotation Xrotation
				JOINT LeftFoot
				{
					OFFSET -0.708756 -10.717838 -2.184338
					CHANNELS 3 Zrotation Yrotation Xrotation
					JOINT LeftToeBase
					{
						OFFSET 0.108149 -7.191104 7.560241
						CHANNELS 3 Zrotation Yrotation Xrotation
						End Site
						{
							OFFSET 0.000000 0.000000 0.000000
						}
					}
				}
			}
		}
	}
	JOINT RightUpLeg_virtual
	{
		OFFSET 0.000000 0.000000 0.000000
		CHANNELS 3 Zrotation Yrotation Xrotation
		JOINT RightUpLeg
		{
			OFFSET -10.205400 -3.823500 0.005500
			CHANNELS 3 Zrotation Yrotation Xrotation
			JOINT RightLeg
			{
				OFFSET -0.708756 -12.982134 0.610632
				CHANNELS 3 Zrotation Yrotation Xrotation
				JOINT RightFoot
				{
					OFFSET 0.708754 -10.717769 -1.945823
					CHANNELS 3 Zrotation Yrotation Xrotation
					JOINT RightToeBase
					{
						OFFSET -0.108140 -7.191069 7.372968
						CHANNELS 3 Zrotation Yrotation Xrotation
						End Site
						{
							OFFSET 0.000000 0.000000 0.000000
						}
					}
				}
			}
		}
	}
	JOINT Spine_virtual
	{
		OFFSET 0.000000 0.000000 0.000000
		CHANNELS 3 Zrotation Yrotation Xrotation
		JOINT Spine
		{
			OFFSET 0.000000 6.876099 0.125700
			CHANNELS 3 Zrotation Yrotation Xrotation
			JOINT Spine1
			{
				OFFSET 0.000000 8.022060 0.146608
				CHANNELS 3 Zrotation Yrotation Xrotation
				JOINT Spine2
				{
					OFFSET 0.000000 9.168068 0.167552
					CHANNELS 3 Zrotation Yrotation Xrotation
					JOINT Neck_virtual
					{
						OFFSET 0.000000 0.000000 0.000000
						CHANNELS 3 Zrotation Yrotation Xrotation
						JOINT Neck
						{
							OFFSET 0.000000 10.314075 0.188496
							CHANNELS 3 Zrotation Yrotation Xrotation
							JOINT Head
							{
								OFFSET 0.000000 7.643700 -2.377400
								CHANNELS 3 Zrotation Yrotation Xrotation
								End Site
								{
									OFFSET 0.000000 0.000000 0.000000
								}
							}
						}
					}
					JOINT LeftShoulder_virtual
					{
						OFFSET 0.000000 0.000000 0.000000
						CHANNELS 3 Zrotation Yrotation Xrotation
						JOINT LeftShoulder
						{
							OFFSET 4.392200 8.824978 0.174984
							CHANNELS 3 Zrotation Yrotation Xrotation
							JOINT LeftArm
							{
								OFFSET 8.771219 -2.981674 -0.026999
								CHANNELS 3 Zrotation Yrotation Xrotation
								JOINT LeftForeArm
								{
									OFFSET 8.512804 0.000000 -0.000000
									CHANNELS 3 Zrotation Yrotation Xrotation
									JOINT LeftHand
									{
										OFFSET 18.484802 0.000000 -0.000000
										CHANNELS 3 Zrotation Yrotation Xrotation
										End Site
										{
											OFFSET 0.000000 0.000000 0.000000
										}
									}
								}
							}
						}
					}
					JOINT RightShoulder_virtual
					{
						OFFSET 0.000000 0.000000 0.000000
						CHANNELS 3 Zrotation Yrotation Xrotation
						JOINT RightShoulder
						{
							OFFSET -4.392200 8.824993 0.141379
							CHANNELS 3 Zrotation Yrotation Xrotation
							JOINT RightArm
							{
								OFFSET -8.771282 -2.981682 -0.094208
								CHANNELS 3 Zrotation Yrotation Xrotation
								JOINT RightForeArm
								{
									OFFSET -8.494598 0.000000 0.000000
									CHANNELS 3 Zrotation Yrotation Xrotation
									JOINT RightHand
									{
										OFFSET -18.483803 0.000000 0.000001
										CHANNELS 3 Zrotation Yrotation Xrotation
										End Site
										{
											OFFSET 0.000000 0.000000 0.000000
										}
									}
								}
							}
						}
					}
				}
			}
		}
	}
}
MOTION
Frames: 10
Frame Time: 0.033333
3.814407 36.080109 -15.840193 -179.875463 -24.090335 -179.744624 -0.763094 -2.831254 15.221435 -6.199031 -5.008412 -14.169801 7.729407 7.223103 16.274592 1.112864 -0.670519 5.672110 0.000000 0.000000 0.000000 4.364752 -1.379251 14.781057 -2.934753 13.731591 -16.035828 -6.309984 9.134573 16.221634 12.777967 3.276419 4.905502 0.000000 0.000000 0.000000 2.121607 1.100017 -0.530109 1.753488 -1.604970 -17.172284 -0.393883 -2.806595 8.536999 -0.033629 0.054729 0.037877 -0.853046 -0.380793 10.625774 -0.177107 1.639372 19.765683 0.000000 0.000000 0.000000 1.054447 0.329221 7.730029 -17.571669 -9.589388 2.370479 -47.094557 13.360177 2.519522 1.907622 -36.732341 2.972477 0.000000 0.000000 0.000000 -3.436738 1.511160 7.095920 29.022328 4.683038 7.311414 43.303027 -13.544714 10.241281 -3.072973 27.979486 -2.287910 0.000000 0.000000 0.000000 
3.801662 36.081009 -15.915491 -179.903576 -24.054832 -179.561275 -0.950937 -2.896748 15.366117 -6.482612 -4.520181 -14.031824 7.731504 7.721588 16.561196 1.443293 -0.338538 5.934469 0.000000 0.000000 0.000000 4.460879 -1.369272 14.650896 -3.281512 14.186673 -16.223362 -6.660450 9.695179 16.018790 13.208634 3.759805 5.248530 0.000000 0.000000 0.000000 2.128867 1.103197 -0.667909 1.777049 -1.554363 -17.277793 -0.367661 -2.754368 8.558482 -0.020352 0.082746 0.107057 -0.873893 -0.371271 10.751067 -0.217379 1.593915 19.943370 0.000000 0.000000 0.000000 1.062443 0.419124 7.803880 -17.606879 -9.320002 2.331109 -47.195248 14.719309 1.890361 1.976658 -36.042461 2.941759 0.000000 0.000000 0.000000 -3.452238 1.529775 7.113433 29.036821 4.482788 7.311137 43.431745 -14.205919 9.808987 -3.125020 27.774725 -2.330865 0.000000 0.000000 0.000000 
3.783797 36.083996 -16.002937 -179.890558 -24.094643 -179.428414 -0.971360 -2.910390 15.331840 -6.443672 -4.372085 -14.025034 7.764894 7.590592 16.589068 1.356405 -0.378715 5.923625 0.000000 0.000000 0.000000 4.501037 -1.318994 14.614865 -3.221664 14.095028 -16.135398 -6.689393 9.521532 16.064759 13.232879 3.846575 5.198240 0.000000 0.000000 0.000000 2.120465 1.173835 -0.926016 1.842141 -1.483983 -17.241715 -0.365191 -2.781960 8.654157 -0.014928 0.078356 0.101263 -0.870995 -0.358588 10.745136 -0.221598 1.562732 20.067369 0.000000 0.000000 0.000000 1.034191 0.327030 7.798163 -17.514577 -8.664206 2.182614 -47.710726 16.891749 0.387508 2.091586 -35.141849 2.835649 0.000000 0.000000 0.000000 -3.476536 1.474060 7.139894 28.944218 4.270835 7.258232 43.762508 -15.280344 9.208953 -3.201316 27.612628 -2.434235 0.000000 0.000000 0.000000 
3.757931 36.083778 -16.081806 -179.852528 -24.179674 -179.430477 -0.928266 -2.846032 15.347153 -6.369567 -4.430827 -13.968712 7.737083 7.518949 16.641339 1.342931 -0.360008 5.926216 0.000000 0.000000 0.000000 4.542185 -1.263172 14.622218 -3.162395 13.992753 -15.975514 -6.547089 9.562903 16.079442 13.136026 3.599078 5.200503 0.000000 0.000000 0.000000 2.192962 1.188577 -0.844024 1.941681 -1.434063 -17.386487 -0.377810 -2.752627 8.599020 -0.010983 0.086614 0.074915 -0.891509 -0.328739 10.814217 -0.225866 1.527362 20.209529 0.000000 0.000000 0.000000 1.018893 0.330958 7.923302 -17.271556 -7.925186 2.071567 -48.569957 19.138578 -1.820663 2.197372 -34.341652 2.734490 0.000000 0.000000 0.000000 -3.518209 1.538110 7.249539 28.777284 3.952303 7.187029 44.242120 -16.617490 8.494816 -3.311639 27.651618 -2.515496 0.000000 0.000000 0.000000 
3.733958 36.084488 -16.135782 -179.886405 -24.378639 -179.472359 -0.979872 -2.808041 15.391423 -6.321471 -4.481440 -13.912615 7.759925 7.493762 16.678907 1.226270 -0.417302 5.915388 0.000000 0.000000 0.000000 4.516553 -1.336073 14.661887 -3.148905 14.005467 -15.810816 -6.504267 9.395513 16.034581 13.181028 3.493071 5.227774 0.000000 0.000000 0.000000 2.157380 1.128390 -0.765498 2.030888 -1.342451 -17.502373 -0.384040 -2.731234 8.596694 -0.020415 0.112079 0.148282 -0.896197 -0.364815 10.861414 -0.237277 1.502450 20.625061 0.000000 0.000000 0.000000 1.032129 0.429381 7.942952 -17.000206 -7.353416 1.890140 -49.402021 21.074637 -3.801032 2.324897 -33.532769 2.600717 0.000000 0.000000 0.000000 -3.552626 1.506267 7.189344 28.555015 3.662122 7.089679 44.854962 -17.848872 7.901490 -3.472008 27.707822 -2.702806 0.000000 0.000000 0.000000 
3.708218 36.088413 -16.168562 -179.852651 -24.628091 -179.500650 -0.961340 -2.876773 15.424010 -6.263981 -4.539590 -13.881792 7.702894 7.437437 16.669548 1.212069 -0.376632 5.867831 0.000000 0.000000 0.000000 4.544417 -1.454287 14.656152 -3.133576 13.870964 -15.672405 -6.500675 9.315084 16.027497 13.180075 3.515568 5.190688 0.000000 0.000000 0.000000 2.176831 1.076494 -0.801728 2.124477 -1.321557 -17.519382 -0.410595 -2.776485 8.613702 -0.041041 0.061822 0.108292 -0.937188 -0.290480 10.879461 -0.272151 1.452936 20.934993 0.000000 0.000000 0.000000 0.999475 0.342806 7.869228 -16.709120 -6.748542 1.827781 -50.203489 22.547653 -5.214685 2.431995 -32.974145 2.477113 0.000000 0.000000 0.000000 -3.579420 1.444946 7.271718 28.344909 3.708763 6.929501 45.463887 -18.756758 7.682979 -3.561385 27.738395 -2.806843 0.000000 0.000000 0.000000 
3.681975 36.090694 -16.196508 -179.848539 -24.873447 -179.519938 -0.975533 -2.985252 15.456546 -6.226822 -4.586513 -13.836162 7.684279 7.436016 16.654615 1.165748 -0.349416 5.810382 0.000000 0.000000 0.000000 4.552130 -1.596195 14.638622 -3.132578 13.749445 -15.572971 -6.414268 9.244975 16.018585 13.218387 3.464257 5.248385 0.000000 0.000000 0.000000 2.185900 1.018728 -0.835595 2.174416 -1.224657 -17.525541 -0.425158 -2.746526 8.596893 -0.019111 0.089254 0.098188 -0.956483 -0.300735 10.886027 -0.253732 1.471452 21.210393 0.000000 0.000000 0.000000 0.970095 0.340629 7.885232 -16.445762 -6.517268 1.728471 -50.705309 23.389925 -5.856590 2.439037 -32.482877 2.415535 0.000000 0.000000 0.000000 -3.603186 1.468827 7.245016 28.124602 3.543931 6.756471 45.954582 -19.286460 7.611048 -3.670007 27.740776 -2.940249 0.000000 0.000000 0.000000 
3.664515 36.090282 -16.219635 -179.877772 -25.101647 -179.444000 -1.026259 -3.103246 15.441362 -6.189982 -4.620270 -13.812908 7.709095 7.475007 16.623080 1.085585 -0.341118 5.724030 0.000000 0.000000 0.000000 4.496138 -1.686220 14.603474 -3.124622 13.573432 -15.555184 -6.301392 9.088822 16.030681 13.251758 3.403552 5.398452 0.000000 0.000000 0.000000 2.187754 0.944873 -0.971639 2.197869 -1.210909 -17.513730 -0.463638 -2.762098 8.608791 -0.032339 0.063996 0.114303 -0.983278 -0.338397 10.834313 -0.279428 1.481207 21.405003 0.000000 0.000000 0.000000 0.952461 0.352182 7.818174 -16.330912 -6.419086 1.724978 -50.911499 23.635176 -5.769514 2.338955 -32.306733 2.361345 0.000000 0.000000 0.000000 -3.610076 1.508888 7.222604 27.967306 3.675230 6.709070 46.261066 -19.399899 7.714488 -3.827095 27.874432 -3.102447 0.000000 0.000000 0.000000 
3.651575 36.088402 -16.241030 -179.880518 -25.288174 -179.410423 -1.054322 -3.161596 15.416256 -6.140879 -4.667197 -13.776362 7.690924 7.506417 16.591675 1.010035 -0.346103 5.636266 0.000000 0.000000 0.000000 4.470676 -1.712082 14.601372 -3.106532 13.364079 -15.562441 -6.188519 8.920232 16.120804 13.274678 3.386992 5.531125 0.000000 0.000000 0.000000 2.186963 0.966142 -1.127577 2.210893 -1.170233 -17.464025 -0.512379 -2.770479 8.664777 -0.028285 0.083053 0.060390 -0.980975 -0.372631 10.743497 -0.283465 1.520568 21.443504 0.000000 0.000000 0.000000 0.928437 0.280778 7.803148 -16.374040 -6.482285 1.729813 -50.845434 23.276219 -5.180053 2.181461 -32.497138 2.356831 0.000000 0.000000 0.000000 -3.619254 1.473849 7.214186 27.892741 3.818460 6.658246 46.382568 -19.238963 7.899445 -3.894857 28.147146 -3.121489 0.000000 0.000000 0.000000 
3.639337 36.083450 -16.246204 -179.836231 -25.358353 -179.452156 -1.003726 -3.132673 15.403490 -6.053805 -4.875521 -13.717011 7.579039 7.627248 16.592450 1.063008 -0.264706 5.559829 0.000000 0.000000 0.000000 4.502462 -1.649068 14.616733 -3.089267 13.209050 -15.564901 -6.026274 9.116712 16.236688 13.214629 3.207416 5.568917 0.000000 0.000000 0.000000 2.258969 0.886253 -1.180188 2.262886 -1.117930 -17.485788 -0.581987 -2.783930 8.648829 -0.046477 0.123156 0.044756 -1.049104 -0.405649 10.785007 -0.336415 1.544736 21.648889 0.000000 0.000000 0.000000 0.887826 0.226925 7.824330 -16.523387 -6.569444 1.794948 -50.475716 22.438396 -4.314581 1.924193 -32.864370 2.384959 0.000000 0.000000 0.000000 -3.668671 1.456183 7.240949 27.898932 4.040776 6.624172 46.334122 -18.837257 8.242363 -3.938647 28.709495 -3.227963 0.000000 0.000000 0.000000 
